<?xml version="1.0" encoding="UTF-8" standalone="no"?>
<svg
   width="1024px"
   height="1024px"
   viewBox="0 0 1024 1024"
   version="1.1"
   id="svg13"
   sodipodi:docname="drawing.svg"
   inkscape:version="1.1.2 (0a00cf5339, 2022-02-04)"
   xmlns:inkscape="http://www.inkscape.org/namespaces/inkscape"
   xmlns:sodipodi="http://sodipodi.sourceforge.net/DTD/sodipodi-0.dtd"
   xmlns="http://www.w3.org/2000/svg"
   xmlns:svg="http://www.w3.org/2000/svg">
  <g
     id="surface1">
    <g
       id="g30">
      <rect
         x="0"
         y="0"
         width="1024"
         height="1024"
         style="fill:rgb(0%,0%,0%);fill-opacity:1;stroke:none;"
         id="rect2" />
      <g
         id="g21">
        <path
           style=" stroke:none;fill-rule:nonzero;fill:rgb(100%,100%,100%);fill-opacity:1;"
           d="M 215.617188 741.472656 C 236.164062 743.296875 316.21875 738.121094 339.210938 733.152344 C 350.542969 730.707031 356.777344 718.089844 357.625 708.066406 C 359.003906 691.765625 360.449219 663.746094 356.585938 638.140625 C 355.808594 632.980469 355.589844 629.75 361.484375 628.90625 C 383.886719 625.710938 413.761719 622.109375 429.085938 617.683594 C 438.699219 614.910156 443.296875 609.011719 438.207031 597.449219 C 383.429688 473.066406 361.628906 351.136719 425.964844 221.101562 C 433.523438 205.828125 456.835938 204.339844 465.332031 220.921875 C 530.554688 348.1875 525.203125 484.390625 512.226562 625.132812 C 502.277344 733.066406 557.78125 729.660156 621.828125 717.269531 C 630.179688 715.652344 636.035156 720.199219 636.359375 729.671875 C 640.074219 837.304688 639.949219 837.328125 718.527344 847.578125 C 758.347656 852.773438 794.167969 857.171875 838.304688 855.007812 C 851.546875 854.355469 858.308594 844.699219 857.96875 835.132812 C 857.574219 823.980469 852.011719 817.949219 838.714844 816.429688 C 791.429688 811.027344 724.882812 810.597656 702.863281 799.929688 C 685.964844 791.742188 683.511719 786.929688 686.015625 738.332031 C 687.222656 714.941406 701.609375 705.84375 737.105469 705.5 L 825.625 704.636719 C 836.664062 704.53125 845.121094 694.148438 845.820312 684.378906 C 846.46875 675.335938 843.304688 666.035156 826.304688 663.699219 C 754.128906 653.785156 684.359375 662.734375 604.660156 667.824219 C 568.667969 670.125 555.382812 652.234375 559.957031 622.472656 C 586.074219 452.511719 529.589844 230.523438 497.039062 192.871094 C 481.242188 174.597656 472.789062 169.089844 443.40625 168.441406 C 414.625 167.804688 389.96875 191.402344 381.382812 209.542969 C 303.320312 374.46875 354.480469 487.328125 363.164062 548.648438 C 364.269531 556.476562 361.410156 564.773438 352.539062 568.496094 C 347.230469 570.722656 236.316406 596.480469 192.75 614.398438 C 173.15625 622.460938 162.253906 631.582031 167.207031 647.941406 C 171.96875 663.652344 188.972656 664.835938 203.941406 660.933594 C 217.835938 657.3125 295.523438 635.328125 308.320312 639.175781 C 316.855469 641.742188 321.523438 649.304688 322.019531 666.019531 C 322.703125 689.117188 320.660156 695.269531 305.125 696.660156 C 289 698.101562 256.875 702.394531 223.378906 704.046875 C 207.773438 704.816406 195.792969 710.019531 196.753906 725.765625 C 197.441406 737.015625 204.886719 740.523438 215.617188 741.472656 Z M 215.617188 741.472656 "
           id="path4" />
        <g
           id="g14">
          <path
             style=" stroke:none;fill-rule:nonzero;fill:rgb(100%,100%,100%);fill-opacity:1;"
             d="M 271.980469 430.882812 C 271.980469 415.679688 259.582031 403.355469 244.289062 403.355469 C 228.996094 403.355469 216.597656 415.679688 216.597656 430.882812 C 216.597656 446.085938 228.996094 458.410156 244.289062 458.410156 C 259.582031 458.410156 271.980469 446.085938 271.980469 430.882812 Z M 271.980469 430.882812 "
             id="path6" />
          <path
             style=" stroke:none;fill-rule:nonzero;fill:rgb(100%,100%,100%);fill-opacity:1;"
             d="M 478.921875 371.773438 C 478.921875 356.570312 466.523438 344.246094 451.230469 344.246094 C 435.9375 344.246094 423.539062 356.570312 423.539062 371.773438 C 423.539062 386.976562 435.9375 399.300781 451.230469 399.300781 C 466.523438 399.300781 478.921875 386.976562 478.921875 371.773438 Z M 478.921875 371.773438 "
             id="path8" />
          <path
             style=" stroke:none;fill-rule:nonzero;fill:rgb(100%,100%,100%);fill-opacity:1;"
             d="M 687.285156 355.925781 C 687.285156 340.722656 674.886719 328.398438 659.59375 328.398438 C 644.300781 328.398438 631.902344 340.722656 631.902344 355.925781 C 631.902344 371.128906 644.300781 383.453125 659.59375 383.453125 C 674.886719 383.453125 687.285156 371.128906 687.285156 355.925781 Z M 687.285156 355.925781 "
             id="path10" />
        </g>
      </g>
    </g>
  </g>
</svg>
